<svg width="14" height="14" viewBox="0 0 14 14" xmlns="http://www.w3.org/2000/svg">
    <title>External link</title>
    <desc>External link icon by Space X-Chimp</desc>
    <defs></defs>
    <g fill="#ccc" fill-rule="evenodd">
        <path d="m10 8c-.553 0-1 .448-1 1v3h-7v-7h3c.553 0 1-.448 1-1s-.447-1-1-1h-4c-.553 0-1 .448-1 1v9c0 .552.447 1 1 1h9c.553 0 1-.448 1-1v-4c0-.552-.447-1-1-1z"/>
        <path d="m13 0h-5c-.553 0-1 .448-1 1s.447 1 1 1h2.586l-6.293 6.293c-.391.391-.391 1.023 0 1.414.195.195.451.293.707.293s.512-.098.707-.293l6.293-6.293v2.586c0 .552.447 1 1 1s1-.448 1-1v-5c0-.552-.447-1-1-1z"/>
    </g>
</svg>
